<svg id="Layer_1" data-name="Layer 1" xmlns="http://www.w3.org/2000/svg" viewBox="0 0 200.2 29.33"><path d="M12.66,11.94a1,1,0,0,1-.07.18,1,1,0,0,1-.17-.22L12,11.84,12,12c0-.06-.06-.11-.08-.13a.14.14,0,0,1,0-.06h0l0-.1h0l.58.11A1.29,1.29,0,0,0,12.66,11.94Z" transform="translate(-0.25 -0.25)" fill="#0a0203"/><path d="M38.06,15.33c.73,0,1.4.55,1.09,1.91s-2.51,2.4-3.18,2.4H31.39l2.85-4.31Z" transform="translate(-0.25 -0.25)" fill="#fab716"/><path d="M114.73,14.49a5,5,0,0,0-1.41,2.45,1.35,1.35,0,0,0,.05,1c.16.26.52.38,1.1.38a2.66,2.66,0,0,0,.89-.16,6.7,6.7,0,0,0,.91-.38l2-4a2.71,2.71,0,0,0-.56-.2,2.51,2.51,0,0,0-.63-.09A3.28,3.28,0,0,0,114.73,14.49Zm-4.54,3a8.31,8.31,0,0,1,2.59-4.28,6,6,0,0,1,4-1.68,4.41,4.41,0,0,1,1.33.18,2.27,2.27,0,0,1,.88.46l.3-.39h2.76l-3.82,7.83a9.24,9.24,0,0,1-1.36,2.08H113.5a2.3,2.3,0,0,0,.52-.26,2.91,2.91,0,0,0,.72-.68,5.07,5.07,0,0,0,.58-1l.08-.16a8.27,8.27,0,0,1-1.39.66,4.27,4.27,0,0,1-1.44.24,2.71,2.71,0,0,1-2.13-.74A2.41,2.41,0,0,1,110.19,17.48Z" transform="translate(-0.25 -0.25)" fill="#0a0203"/><path d="M11.34,21.37a.26.26,0,0,1,.26.29c0,.19.09.64-.54.64a2,2,0,0,1-.83-.14.77.77,0,0,1,0-.47c0-.28.25-.31.44-.32S11.2,21.37,11.34,21.37Z" transform="translate(-0.25 -0.25)" fill="#fab716"/><path d="M179.68,11.77h2.66l-.9,1.82,0,0h-2.66l-1.57,3.2-.33.66a4.06,4.06,0,0,0-.22.58c-.08.31,0,.53.09.65a1.17,1.17,0,0,0,.77.19,3.31,3.31,0,0,0,.6-.08,3.87,3.87,0,0,0,.62-.19H179l-.94,1.9c-.34.08-.7.14-1.06.19a12.16,12.16,0,0,1-1.29.06,2.93,2.93,0,0,1-2-.48,1.39,1.39,0,0,1-.26-1.44,4,4,0,0,1,.17-.49l.25-.55,2.06-4.2h-1.17l.92-1.86h1.17l1.24-2.54h2.85Z" transform="translate(-0.25 -0.25)" fill="#0a0203"/><path d="M111.58,24l.61-2a4.48,4.48,0,0,0,.86-.11l.45-.14h3.39l0,0A6.23,6.23,0,0,1,115.22,23a6.47,6.47,0,0,1-1.9.72A9.44,9.44,0,0,1,111.58,24Z" transform="translate(-0.25 -0.25)" fill="#0a0203"/><path d="M186.83,13.26a2.86,2.86,0,0,0-1.6.48A4.41,4.41,0,0,0,184,15.06h3.84a1.72,1.72,0,0,0,.1-.26,1.83,1.83,0,0,0,.08-.25,1,1,0,0,0-.14-1A1.3,1.3,0,0,0,186.83,13.26Zm-6.44,3.83a7.63,7.63,0,0,1,1-2.22,9.68,9.68,0,0,1,.74-.95,8.74,8.74,0,0,1,.89-.82,7.16,7.16,0,0,1,2.12-1.18,7.26,7.26,0,0,1,2.5-.43,3.88,3.88,0,0,1,2.78.8,2.34,2.34,0,0,1,.39,2.37,6.33,6.33,0,0,1-.38,1.05,9.06,9.06,0,0,1-.55,1h-6.59a.44.44,0,0,0,0,.1.46.46,0,0,0,0,.09,1.42,1.42,0,0,0,.27,1.44,2.57,2.57,0,0,0,1.85.52,5.42,5.42,0,0,0,1.85-.32,10.92,10.92,0,0,0,1.64-.7h.31L188,20.13a10.71,10.71,0,0,1-1.89.55,10.86,10.86,0,0,1-2,.18,4.35,4.35,0,0,1-3.23-1A2.73,2.73,0,0,1,180.39,17.09Z" transform="translate(-0.25 -0.25)" fill="#0a0203"/><path d="M74.39,13.87v3a7.17,7.17,0,0,1-7.5,2.85c-2.1-.5-2.06-4.8.67-7.65s4.58-2.52,5.22-2.15,1.79,1.09.4,4Z" transform="translate(-0.25 -0.25)" fill="#fab716"/><path d="M11.89,11.75c0-.05,0-.1,0-.1Z" transform="translate(-0.25 -0.25)" fill="#0a0203"/><path d="M3.65,10.93l2.66,2.52a.11.11,0,0,1,0,.15l-.05.06a.15.15,0,0,1-.18,0L3.46,11.2a.17.17,0,0,1,0-.22S3.6,10.89,3.65,10.93Z" transform="translate(-0.25 -0.25)" fill="#fff"/><path d="M11,24.72h.55a.18.18,0,0,1,.17.17v.82a.18.18,0,0,1-.17.17l-.43,0c-.1,0-.39,0-.38-.2l0-.65C10.7,25,10.69,24.69,11,24.72Z" transform="translate(-0.25 -0.25)" fill="#fab716"/><path d="M170.1,14.75A.81.81,0,0,0,170,14a1.22,1.22,0,0,0-.89-.23,2.81,2.81,0,0,0-.82.15L168,12.74a16.88,16.88,0,0,1,1.83-.9,4.6,4.6,0,0,1,1.68-.32,2.14,2.14,0,0,1,1.71.59,1.73,1.73,0,0,1,.22,1.66,3.84,3.84,0,0,1-.16.49,5.18,5.18,0,0,1-.26.6l-2.83,5.76h-2.87l2.16-4.39c.16-.34.29-.62.39-.85A3.51,3.51,0,0,0,170.1,14.75Z" transform="translate(-0.25 -0.25)" fill="#0a0203"/><path d="M153.05,8.41a5.32,5.32,0,0,1-.16,2,.44.44,0,0,1-.08.11h-2a.42.42,0,0,1,.06-.14A16.49,16.49,0,0,1,153.05,8.41Z" transform="translate(-0.25 -0.25)" fill="#fab716"/><path d="M14.37,17.59c0-.63-.07-2,.22-2s0,1.75.07,2.87l-.29-.26C14.36,18,14.36,17.81,14.37,17.59Z" transform="translate(-0.25 -0.25)" fill="#0a0203"/><circle cx="10.74" cy="5.73" r="1.55" fill="#fff"/><path d="M11.12,23.25s.11-.08.17-.08.17.13.17.3-.14.32-.21.31a.26.26,0,0,1-.22-.3C11.05,23.25,11.11,23.25,11.12,23.25Z" transform="translate(-0.25 -0.25)" fill="#0a0203"/><path d="M11,26.12c.2,0,.34,0,.44,0,.31,0,.29.49.06.61s-.36.08-.51.17-.31.33-.54.47-.79.37-.91.27,0-.51.26-.68a1,1,0,0,1,.46-.17c.07,0,.18-.22.24-.22s.14-.19.15-.24A.28.28,0,0,1,11,26.12Z" transform="translate(-0.25 -0.25)" fill="#fab716"/><path d="M12.54,6A1.55,1.55,0,1,0,11,7.53,1.56,1.56,0,0,0,12.54,6Zm4.22.85a4.37,4.37,0,1,1-4.37-4.37A4.37,4.37,0,0,1,16.76,6.83Z" transform="translate(-0.25 -0.25)" fill="#0a0203"/><path d="M77.52,25c7-5.74,8.44-15.63,8.32-18.18s-2.63-4.27-5.19-4.27H35.12c-1.94,0-4-.07-7.61,3.22-3.19,2.87-5,6.22-7,11.2-2.53,6.48-1,10.71,5.38,10.71H69.58C71.33,27.65,73.77,28,77.52,25Zm-65.8,4c-.55.36-3.28,1.21-4.43-.49s1.15-3.64,1.15-3.64V22.92c-.42-.25-.55-1.16-.55-1.16-.78-.48-.72-2.36-.72-2.36-1.7-1-1.46-3.77-1.46-3.77-2.12-1.15-4.31-4.37-5-5.46a3.15,3.15,0,0,1,0-3.34c.61-.79,1.88-.48,2.61-.12s3,1.82,3,1.82A6.36,6.36,0,0,1,6,6.47,6.46,6.46,0,0,1,12.63.25a6.33,6.33,0,0,1,4.29,11s2.09,2.68,1.6,5.41c2.24-5.38,4.22-9.13,7.83-12.32C30.63.56,33.09.68,35.36.68H80.92c2.32,0,5.74,1.08,6.4,4.91C87.86,8.79,87,19,78.81,26.48,75,30,69.94,29.56,69.5,29.56h-43c-4.68,0-7.76-2.25-8.75-5.54l-2.12-.8v1.64a2.61,2.61,0,0,1,.79,3.52C15.6,30.08,11.72,29,11.72,29Zm.67-17.79A4.37,4.37,0,1,0,8,6.83,4.37,4.37,0,0,0,12.39,11.2Zm.33.62c.09-.19-.08-.21-.18-.19a4.5,4.5,0,0,1-.53,0h-.07s-.07,0,0,.1h0c-.1.21-.32.53-.81.14-.25-.25-.45-.12-.65-.08A8.8,8.8,0,0,0,9,12.23a2.17,2.17,0,0,0-.43,1c-.5-.45-5.63-4.95-5.9-5.24s-.42-.42-.5-.07A5.31,5.31,0,0,0,2,9.1c.41,1.87,2.56,3.81,4.19,5,.12.09.39.41.33-.15,0,0,0-.27.21-.06,0,.05.58.47,1.37,1.08-.24,1-.43,2-.46,2.2-.06.42.08.42.17.5a10.33,10.33,0,0,0,.92.53c.31.15.35.26.35.39v2c0,.18-.06.68.32.66s.41.23.43.34-.12.88.22.91.38.05.38.36v2.69c0,.38,0,.53-.1.59-.79.45-1.55,1.46-1.11,1.68.62.32,2.06-1,2.53-1,.25,0,.37.18.72.19s.36.2.91.44,1,.12,1-.34-.27-.6-.65-.82-.42-.41-.42-.41A13.77,13.77,0,0,1,13.45,24c0-1.39.25-1.34.47-1.53s0-.56,0-.76,0-.41.26-.41.6-.09.57-.36,0-.7.13-.7l1.57,1.21a3.13,3.13,0,0,0,.67.37c.32.14.55.3.71.36s.37.05.22-.19-.31-.52-.41-.67a2.8,2.8,0,0,0-.5-.65l-1.48-1.3c-.15-.38.18-.64.22-.81a18.37,18.37,0,0,0-.11-4.28,12.17,12.17,0,0,0-2.08-2.55c-.13,0-.25.17-.33.34a.53.53,0,0,1-.73-.15Z" transform="translate(-0.25 -0.25)" fill="#fff"/><path d="M110.56,21.8c-.15,0-.3-.07-.44-.12h2.15l-.08.25a3.7,3.7,0,0,1-.48,0A5,5,0,0,1,110.56,21.8Z" transform="translate(-0.25 -0.25)" fill="#19468d"/><path d="M9.11,15.78a9.22,9.22,0,0,1,.35-1s.07-.14.13-.14.07,0,.07.18c0,.44-.05.88-.07,1.3Z" transform="translate(-0.25 -0.25)" fill="#0a0203"/><path d="M150.94,11.11a.49.49,0,0,1-.1-.61h2a1.85,1.85,0,0,1-.79.61Z" transform="translate(-0.25 -0.25)" fill="#fab716"/><path d="M79.47,3.72c3.23,0,4.77,1.07,4.91,3.46l-1.95.08H76.12l-.64,1.15s-1.12-1.67-5.13-1.67c-3.75,0-9.11,2-10.92,6.56l-2.37-.86.68-1.88h-1.1v-.31a2.11,2.11,0,0,0,.35,0,2.07,2.07,0,0,0,2-2.11,2,2,0,0,0-2.1-1.55V3.72Z" transform="translate(-0.25 -0.25)" fill="#fab716"/><path d="M149.22,7.59h2.95l-.74.76h-.06l-.06.13a7.87,7.87,0,0,0-.87,1c-.41.72-.27,1.33.29,1.59H148.3Z" transform="translate(-0.25 -0.25)" fill="#fff"/><path d="M124.08,18.57a1.18,1.18,0,0,0,1,.4,2.43,2.43,0,0,0,1.06-.28,3.67,3.67,0,0,0,1-.78A6.09,6.09,0,0,0,128,16.7a7.8,7.8,0,0,0,.6-1.59,1.73,1.73,0,0,0,0-1.25,1.06,1.06,0,0,0-1-.44,2.34,2.34,0,0,0-1.12.29,3.88,3.88,0,0,0-1,.83,5.61,5.61,0,0,0-.83,1.23,7.71,7.71,0,0,0-.58,1.51A1.5,1.5,0,0,0,124.08,18.57Zm-2-3.49a8,8,0,0,1,1.66-1.87A7.67,7.67,0,0,1,125.86,12a7.1,7.1,0,0,1,2.57-.46,3.55,3.55,0,0,1,2.79.93A2.71,2.71,0,0,1,131.6,15a8.09,8.09,0,0,1-1,2.33,7.83,7.83,0,0,1-3.82,3.12,7.13,7.13,0,0,1-2.54.44,3.52,3.52,0,0,1-2.79-.95,2.76,2.76,0,0,1-.37-2.62A8.14,8.14,0,0,1,122,15.08Z" transform="translate(-0.25 -0.25)" fill="#0a0203"/><path d="M12.49,12.35c-.06.11.14.8.31.8s.44-.67.5-.83h0a.53.53,0,0,0,.2-.09l-.07-.15,0,0c.08-.17.2-.36.33-.34A12.17,12.17,0,0,1,15.8,14.3a18.37,18.37,0,0,1,.11,4.28c0,.17-.37.43-.22.81-.14-.12-.29-.24-.44-.38.7-.72.5-2.77.4-4.14a6.82,6.82,0,0,0-1.88-2.65c-.24.41-.51.88-.76,1.29s-.5.89-.76.89-.71-1-.94-1.6c-.11-.27-.36-.76-.61-.72-.51.08-1.58.24-1.7.65-.07.23-.13.45-.19.67l-.19-.17,0,0a2.17,2.17,0,0,1,.43-1,8.8,8.8,0,0,1,1.43-.41c.2,0,.4-.17.65.08L11,12a.92.92,0,0,0,.32.17h0a5.66,5.66,0,0,1,.37.77c.09.23.36.16.44-.59A1.37,1.37,0,0,0,12,12l0-.11.38.06a1,1,0,0,0,.17.22A1,1,0,0,1,12.49,12.35Z" transform="translate(-0.25 -0.25)" fill="#0a0203"/><path d="M113.5,21.68l-.45.14a4.48,4.48,0,0,1-.86.11l.08-.25Z" transform="translate(-0.25 -0.25)" fill="#ce202f"/><path d="M111.2,24a13,13,0,0,1-1.81-.12,10.45,10.45,0,0,1-1.4-.26l.87-1.9h1.26c.14.05.29.08.44.12a5,5,0,0,0,1.15.15,3.7,3.7,0,0,0,.48,0l-.61,2Z" transform="translate(-0.25 -0.25)" fill="#0a0203"/><path d="M155.23,4.63s-.15,1.56-.39,3h-2.67C153.55,6.2,155.23,4.63,155.23,4.63Z" transform="translate(-0.25 -0.25)" fill="#ce202f"/><path d="M46.07,17.57a3.22,3.22,0,0,0-2.06-3s5.37-.67,5.37-4.67c0-1.86-2-2.77-3.52-2.77H32.45L24.77,22.43H39.82C41.52,22.43,45.65,21.12,46.07,17.57ZM82.43,7.26l1.95-.08a2.75,2.75,0,0,1,0,.41c0,2.31-1.21,11.24-7.91,16.44-3.56,2.77-5,2.42-7.55,2.42H27.23c-7,0-7.51-3.82-5.11-9.69C24,12.26,25.63,9.2,28.66,6.61c3.48-3,4.24-2.89,7.32-2.89H56.87V6.57a2.11,2.11,0,0,0-.35,0,2.06,2.06,0,0,0-2,2.11,2,2,0,0,0,2.09,1.55v.31h-3.3L46.27,22.43h7.16l3.63-10,2.37.86a8.62,8.62,0,0,0-.31.94c-1.39,5.22,2.31,8.43,7.11,8.43s7.64-1.39,10-4.06l-1.85-1.76v-3H76.3Z" transform="translate(-0.25 -0.25)" fill="#fab716"/><path d="M150.34,21.4h.35a6.55,6.55,0,0,0,.78.28h-1.26Z" transform="translate(-0.25 -0.25)" fill="#0a0203"/><path d="M12.54,11.63c.1,0,.27,0,.18.19l-.06.12a1.29,1.29,0,0,1-.13-.19L12,11.64H12A4.5,4.5,0,0,0,12.54,11.63Z" transform="translate(-0.25 -0.25)" fill="#0a0203"/><path d="M200.25,11.77l-1.33,2.7h-.25a2.37,2.37,0,0,0-.51-.09,5.17,5.17,0,0,0-.68,0,6.71,6.71,0,0,0-1.1.09,7.68,7.68,0,0,0-1.14.26l-2.92,5.93h-2.86l4.36-8.85h2.86l-.64,1.3a13.27,13.27,0,0,1,1.85-1,4.63,4.63,0,0,1,1.71-.37h.33A2.5,2.5,0,0,1,200.25,11.77Z" transform="translate(-0.25 -0.25)" fill="#0a0203"/><path d="M9.28,17.29c0,.1,0,.72-.25.62a2.4,2.4,0,0,1-.84-.34c-.13-.13-.24-.09-.2-.38a17.14,17.14,0,0,1,.35-2l.77.6a5.28,5.28,0,0,0-.2.81C8.87,16.84,9.28,17,9.28,17.29Z" transform="translate(-0.25 -0.25)" fill="#fab716"/><path d="M13,25.63c0,.1-.24.26-.33.26h-.35c-.1,0-.42-.15-.41-.32v-.51c0-.1.11-.37.21-.37h.61a.28.28,0,0,1,.29.29Z" transform="translate(-0.25 -0.25)" fill="#fab716"/><path d="M59,8.12a2.07,2.07,0,0,1-2,2.11,2.11,2.11,0,0,1-.35,0A2,2,0,0,1,54.55,8.7a2.06,2.06,0,0,1,2-2.11,2.11,2.11,0,0,1,.35,0A2,2,0,0,1,59,8.12Z" transform="translate(-0.25 -0.25)" fill="#0a0203"/><path d="M11.29,23.17c-.06,0-.15.08-.17.08s-.07,0-.09.23a.26.26,0,0,0,.22.3c.07,0,.21-.14.21-.31S11.43,23.17,11.29,23.17Zm-.45-.6a5.51,5.51,0,0,1,.7,0c.18,0,.27.14.25.67s0,.7,0,.86-.18.28-.44.29a1.42,1.42,0,0,1-.51,0c-.11,0-.17-.13-.18-.44a8.19,8.19,0,0,1,0-1.06C10.67,22.72,10.64,22.57,10.84,22.57Z" transform="translate(-0.25 -0.25)" fill="#fff"/><path d="M155.09,11.11h-2.81a3.72,3.72,0,0,0,2-1.53,7.79,7.79,0,0,0,.53-2H156Z" transform="translate(-0.25 -0.25)" fill="#fff"/><path d="M153.28,21.68l-.08.27h-.13a5.06,5.06,0,0,1-1.16-.15c-.15,0-.3-.07-.44-.12Z" transform="translate(-0.25 -0.25)" fill="#ce202f"/><polygon points="139.64 18.1 145.08 18.1 143.95 20.37 135.48 20.37 141.25 8.63 144.29 8.63 139.64 18.1" fill="#ce202f"/><path d="M150.31,10.5l1-2,.12-.13h1.62v.06a16.49,16.49,0,0,0-2.15,1.95.42.42,0,0,0-.06.14Z" transform="translate(-0.25 -0.25)" fill="#ce202f"/><path d="M158.38,13.53a3.29,3.29,0,0,0-2.3,1,5,5,0,0,0-1.41,2.45,1.33,1.33,0,0,0,.06,1.06c.15.25.52.37,1.09.37a2.66,2.66,0,0,0,.89-.16,6.7,6.7,0,0,0,.91-.38l1.95-4a2.59,2.59,0,0,0-.55-.2A2.65,2.65,0,0,0,158.38,13.53Zm-.13,8.15h-3.39a2.8,2.8,0,0,0,.52-.26,3.05,3.05,0,0,0,.71-.68,5.63,5.63,0,0,0,.59-1l.08-.16a8.73,8.73,0,0,1-1.4.66,4.23,4.23,0,0,1-1.44.24,2.71,2.71,0,0,1-2.13-.74,2.44,2.44,0,0,1-.25-2.27,8.31,8.31,0,0,1,2.59-4.28,6,6,0,0,1,4-1.68,4.41,4.41,0,0,1,1.33.18,2.33,2.33,0,0,1,.88.46l.3-.39h2.77L159.6,19.6A9.58,9.58,0,0,1,158.25,21.68Z" transform="translate(-0.25 -0.25)" fill="#0a0203"/><path d="M153.05,8.35h1.33l-1.06,2.15h-.51a.44.44,0,0,0,.08-.11,5.32,5.32,0,0,0,.16-2Z" transform="translate(-0.25 -0.25)" fill="#ce202f"/><path d="M12.62,23.72c.13,0,.2-.12.24-.29a.25.25,0,0,0-.24-.29c-.07,0-.09,0-.14.08a.51.51,0,0,0-.1.21C12.37,23.64,12.49,23.72,12.62,23.72Zm-.39-1.11a1.67,1.67,0,0,1,.66-.06c.19,0,.35.14.33.67a6.63,6.63,0,0,1-.07.83.37.37,0,0,1-.4.32,1.89,1.89,0,0,1-.58,0c-.1,0-.16-.13-.18-.44s0-.94,0-1.06S12.08,22.7,12.23,22.61Z" transform="translate(-0.25 -0.25)" fill="#fff"/><path d="M14.66,18.5l.59.51a.75.75,0,0,1-.39.25A1.84,1.84,0,0,1,14.66,18.5Z" transform="translate(-0.25 -0.25)" fill="#fab716"/><path d="M41.43,9.5c.43,0,1.61.06,1.55,1.31S40.76,12.69,40,12.69H36.24L38.4,9.5Z" transform="translate(-0.25 -0.25)" fill="#fab716"/><path d="M12.86,23.43c0,.17-.11.29-.24.29s-.25-.08-.24-.29a.51.51,0,0,1,.1-.21c0-.06.07-.08.14-.08A.25.25,0,0,1,12.86,23.43Z" transform="translate(-0.25 -0.25)" fill="#0a0203"/><path d="M32.45,7.1h9V9.5h-3l-2.16,3.19h1.82v2.64H34.24l-2.85,4.31H36v2.79H24.77Z" transform="translate(-0.25 -0.25)" fill="#0a0203"/><path d="M109.39,23.84a13,13,0,0,0,1.81.12h.38l-.12.38H88.76L96.38,8.69H99.8l-6.31,13h15.37l-.87,1.9A10.45,10.45,0,0,0,109.39,23.84Z" transform="translate(-0.25 -0.25)" fill="#19468d"/><path d="M15.05,20.34l.23-.85.41-.1,1.48,1.3a2.8,2.8,0,0,1,.5.65c.1.15.34.55.41.67s.07.3-.22.19-.39-.22-.71-.36a3.13,3.13,0,0,1-.67-.37l-1.57-1.21A.23.23,0,0,1,15.05,20.34Z" transform="translate(-0.25 -0.25)" fill="#0a0203"/><path d="M109.34,21.4a6.55,6.55,0,0,0,.78.28h-1.26l.13-.28Z" transform="translate(-0.25 -0.25)" fill="#0a0203"/><path d="M14.46,19.92q0,.31,0,.63c0,.15-.1.45-.32.46-1.36.1-2.64.11-3.92.09-.23,0-.79.13-.79-.51,0-1.57.07-3,.16-4.44Z" transform="translate(-0.25 -0.25)" fill="#fab716"/><path d="M88.62,3v.41H89c.17,0,.25-.06.25-.21A.19.19,0,0,0,89,3Zm0,.66v.58h-.31V2.78h.76a.42.42,0,0,1,.47.42.38.38,0,0,1-.23.36c.12,0,.19.1.19.38s0,.27.06.29v0h-.34a.92.92,0,0,1,0-.3c0-.2,0-.28-.24-.28Z" transform="translate(-0.25 -0.25)" fill="#0a0203"/><path d="M14.37,18.24c-2.14-1.86-4.82-4.2-5.56-4.83,0,0,0,0,0,0,.06-.22.12-.44.19-.67.12-.41,1.19-.57,1.7-.65.25,0,.5.45.61.72.23.57.73,1.6.94,1.6s.56-.57.76-.89.52-.88.76-1.29a6.82,6.82,0,0,1,1.88,2.65c.1,1.37.3,3.42-.4,4.14l-.59-.51c-.09-1.12.15-2.87-.07-2.87s-.18,1.33-.22,2C14.36,17.81,14.36,18,14.37,18.24Z" transform="translate(-0.25 -0.25)" fill="#fab716"/><path d="M153.2,22l.08-.27h1.58a4.21,4.21,0,0,1-.46.14A6,6,0,0,1,153.2,22Z" transform="translate(-0.25 -0.25)" fill="#fab716"/><path d="M8.81,13.41c-.18.6-.34,1.18-.47,1.77L8.11,15c.14-.63.3-1.29.46-1.81l0,0,.19.17S8.81,13.41,8.81,13.41Z" transform="translate(-0.25 -0.25)" fill="#0a0203"/><path d="M154.38,8.35h-2.95l.74-.76h2.67a7.79,7.79,0,0,1-.53,2,3.72,3.72,0,0,1-2,1.53H152a1.85,1.85,0,0,0,.79-.61h.51Z" transform="translate(-0.25 -0.25)" fill="#ce202f"/><path d="M152.47,24.33h-41l.12-.38a9.44,9.44,0,0,0,1.74-.2,6.47,6.47,0,0,0,1.9-.72,6.23,6.23,0,0,0,1.65-1.33l0,0h33.32l-.87,1.9a10.63,10.63,0,0,0,1.41.26,12.74,12.74,0,0,0,1.8.12h0Z" transform="translate(-0.25 -0.25)" fill="#ce202f"/><path d="M13.3,12.31a.65.65,0,0,1-.71-.19,1,1,0,0,0,.07-.18.53.53,0,0,0,.73.15Z" transform="translate(-0.25 -0.25)" fill="#0a0203"/><path d="M12.8,13.15c-.17,0-.37-.69-.31-.8a1,1,0,0,0,.1-.23.65.65,0,0,0,.71.19h0C13.24,12.48,13,13.15,12.8,13.15Z" transform="translate(-0.25 -0.25)" fill="#fff"/><path d="M12.52,21.28c.28,0,.56.08.81.09.41,0,.3.42.32.64s-.23.3-.46.3-.45,0-.64,0-.42-.08-.42-.33v-.33C12.11,21.45,12.22,21.28,12.52,21.28Z" transform="translate(-0.25 -0.25)" fill="#fab716"/><path d="M11.08,11.9a1.24,1.24,0,0,1,.23.31A.92.92,0,0,1,11,12Z" transform="translate(-0.25 -0.25)" fill="#0a0203"/><path d="M151.31,8.48l-1,2h.53a.49.49,0,0,0,.1.61h-.21c-.56-.26-.7-.87-.29-1.59A7.87,7.87,0,0,1,151.31,8.48Z" transform="translate(-0.25 -0.25)" fill="#ce202f"/><path d="M14.46,19.92c0-.55-.08-1.11-.09-1.68l.29.26a1.84,1.84,0,0,0,.2.76.75.75,0,0,0,.39-.25c.15.14.3.26.44.38l-.41.1-.23.85a.23.23,0,0,0-.14-.08Z" transform="translate(-0.25 -0.25)" fill="#0a0203"/><path d="M8.81,13.41c.74.63,3.42,3,5.56,4.83,0,.57.07,1.13.09,1.68L9.59,16.15c0-.42.05-.86.07-1.3,0-.14,0-.18-.07-.18s-.12.1-.13.14a9.22,9.22,0,0,0-.35,1l-.77-.6C8.47,14.59,8.63,14,8.81,13.41Z" transform="translate(-0.25 -0.25)" fill="#fab716"/><path d="M156.58,23a6.57,6.57,0,0,0,1.65-1.33l0,0H200l-1.31,2.65H152.47l.11-.37a9.83,9.83,0,0,0,2.1-.21A6.4,6.4,0,0,0,156.58,23Z" transform="translate(-0.25 -0.25)" fill="#fab716"/><path d="M87.45,3.54A1.45,1.45,0,1,1,88.89,5,1.44,1.44,0,0,1,87.45,3.54Zm1.44-1.15A1.15,1.15,0,1,0,90,3.54,1.14,1.14,0,0,0,88.89,2.39Z" transform="translate(-0.25 -0.25)" fill="#0a0203"/><path d="M150.94,11.11H152a1.45,1.45,0,0,1-.59.14h-.18A.59.59,0,0,1,150.94,11.11Z" transform="translate(-0.25 -0.25)" fill="#fab716"/><path d="M70.35,6.74c4,0,5.13,1.67,5.13,1.67l.64-1.15h6.31L76.3,13.87H73.18c1.39-2.88.24-3.61-.4-4s-2.49-.7-5.22,2.15-2.77,7.15-.67,7.65a7.17,7.17,0,0,0,7.5-2.85l1.85,1.76c-2.37,2.67-5.22,4.06-10,4.06s-8.5-3.21-7.11-8.43a8.62,8.62,0,0,1,.31-.94C61.24,8.74,66.6,6.74,70.35,6.74Z" transform="translate(-0.25 -0.25)" fill="#0a0203"/><path d="M11.69,13a5.66,5.66,0,0,0-.37-.77A.51.51,0,0,0,12,12a1.37,1.37,0,0,1,.14.44C12.05,13.14,11.78,13.21,11.69,13Z" transform="translate(-0.25 -0.25)" fill="#fff"/><path d="M167.31,8.35h2.85L168,12.74l.32,1.17a7.67,7.67,0,0,0-1.1.43l-3.09,6.28h-2.85Z" transform="translate(-0.25 -0.25)" fill="#0a0203"/><path d="M45.86,7.1c1.52,0,3.52.91,3.52,2.77,0,4-5.37,4.67-5.37,4.67a3.22,3.22,0,0,1,2.06,3c-.42,3.55-4.55,4.86-6.25,4.86H36V19.64c.67,0,2.88-1,3.18-2.4s-.36-1.91-1.09-1.91V12.69h2c.73,0,2.89-.64,2.95-1.88S41.86,9.5,41.43,9.5V7.1Z" transform="translate(-0.25 -0.25)" fill="#0a0203"/><path d="M150.94,11.11a.59.59,0,0,0,.31.13,1.37,1.37,0,0,1-.52-.13Z" transform="translate(-0.25 -0.25)" fill="#ce202f"/><path d="M152,11.11h.26a2.9,2.9,0,0,1-.85.14A1.45,1.45,0,0,0,152,11.11Z" transform="translate(-0.25 -0.25)" fill="#ce202f"/><path d="M12.93,26.12c.12.05.1.28.15.36s.22,0,.34.09a.24.24,0,0,0,.23.16c.21,0,.62.28.51.48-.45.32-.9-.11-1.36-.35s-.79-.07-.74-.59C12.08,26,12.67,26,12.93,26.12Z" transform="translate(-0.25 -0.25)" fill="#fab716"/><path d="M13.5,12.22a.53.53,0,0,1-.2.09l.09-.22,0,0Z" transform="translate(-0.25 -0.25)" fill="#0a0203"/><path d="M2.67,8c.27.29,5.4,4.79,5.9,5.24-.16.52-.32,1.18-.46,1.81-.79-.61-1.32-1-1.37-1.08-.21-.21-.21.06-.21.06.06.56-.21.24-.33.15C4.57,12.91,2.42,11,2,9.1a5.31,5.31,0,0,1,.16-1.22C2.25,7.53,2.46,7.73,2.67,8Zm3.64,5.5L3.65,10.93s-.15,0-.19.05a.17.17,0,0,0,0,.22l2.63,2.48a.15.15,0,0,0,.18,0l.05-.06A.11.11,0,0,0,6.31,13.45Z" transform="translate(-0.25 -0.25)" fill="#0a0203"/><path d="M105,13.71a4.23,4.23,0,0,0-1,.83,5.61,5.61,0,0,0-.83,1.23,7.71,7.71,0,0,0-.58,1.51,1.53,1.53,0,0,0,.07,1.29,1.16,1.16,0,0,0,1,.4,2.43,2.43,0,0,0,1.06-.28,3.86,3.86,0,0,0,1-.78,6.47,6.47,0,0,0,.86-1.21,6.78,6.78,0,0,0,.6-1.59,1.73,1.73,0,0,0,0-1.25,1.06,1.06,0,0,0-1-.44A2.35,2.35,0,0,0,105,13.71Zm4.77-1.29a2.71,2.71,0,0,1,.38,2.59,8.06,8.06,0,0,1-1,2.33,7.91,7.91,0,0,1-1.67,1.87,7.65,7.65,0,0,1-2.15,1.25,7.18,7.18,0,0,1-2.55.44A3.49,3.49,0,0,1,100,20a2.76,2.76,0,0,1-.38-2.62,8.25,8.25,0,0,1,1-2.24,7.82,7.82,0,0,1,1.66-1.88A7.67,7.67,0,0,1,104.43,12a7.1,7.1,0,0,1,2.57-.46A3.54,3.54,0,0,1,109.79,12.42Z" transform="translate(-0.25 -0.25)" fill="#0a0203"/><polygon points="57.49 10.31 56.81 12.19 53.18 22.18 46.02 22.18 53.09 10.31 56.39 10.31 57.49 10.31" fill="#0a0203"/><path d="M84.4,7.59a2.75,2.75,0,0,0,0-.41c-.14-2.39-1.68-3.46-4.91-3.46H36c-3.08,0-3.84-.09-7.32,2.89-3,2.59-4.7,5.65-6.54,10.15-2.4,5.87-1.94,9.69,5.11,9.69H68.94c2.5,0,4,.35,7.55-2.42C83.19,18.83,84.4,9.9,84.4,7.59Zm1.44-.8C86,9.34,84.56,19.23,77.52,25c-3.75,3.07-6.19,2.68-7.94,2.68H25.93c-6.38,0-7.91-4.23-5.38-10.71,1.94-5,3.77-8.33,7-11.2,3.65-3.29,5.67-3.22,7.61-3.22H80.65C83.21,2.52,85.71,4.24,85.84,6.79Z" transform="translate(-0.25 -0.25)" fill="#0a0203"/><path d="M158.23,21.7A6.57,6.57,0,0,1,156.58,23a6.4,6.4,0,0,1-1.9.72,9.83,9.83,0,0,1-2.1.21l.62-2a6,6,0,0,0,1.2-.13,4.21,4.21,0,0,0,.46-.14h3.39Z" transform="translate(-0.25 -0.25)" fill="#0a0203"/><path d="M151.43,8.35l-.12.13.06-.13Z" transform="translate(-0.25 -0.25)" fill="#fff"/><path d="M11.31,12.21a1.24,1.24,0,0,0-.23-.31c.49.39.71.07.81-.14a.14.14,0,0,0,0,.06s0,.07.08.13a.51.51,0,0,1-.67.26Z" transform="translate(-0.25 -0.25)" fill="#0a0203"/><polygon points="145.15 20.37 149.52 11.52 152.37 11.52 148.01 20.37 145.15 20.37" fill="#0a0203"/><path d="M153.2,22l-.62,2h0a12.74,12.74,0,0,1-1.8-.12,10.63,10.63,0,0,1-1.41-.26l.87-1.9h1.26c.14.05.29.08.44.12a5.06,5.06,0,0,0,1.16.15Z" transform="translate(-0.25 -0.25)" fill="#0a0203"/><path d="M11.4,26.12c-.1,0-.24,0-.44,0a.28.28,0,0,0-.35.21c0,.05-.09.24-.15.24s-.17.19-.24.22a1,1,0,0,0-.46.17c-.24.17-.38.57-.26.68s.69-.13.91-.27.28-.31.54-.47.17,0,.51-.17S11.71,26.14,11.4,26.12Zm.13-1.4H11c-.29,0-.28.24-.28.34l0,.65c0,.17.28.2.38.2l.43,0a.18.18,0,0,0,.17-.17v-.82A.18.18,0,0,0,11.53,24.72Zm0-2.17a5.51,5.51,0,0,0-.7,0c-.2,0-.17.15-.18.27a8.19,8.19,0,0,0,0,1.06c0,.31.07.41.18.44a1.42,1.42,0,0,0,.51,0c.26,0,.42-.12.44-.29s0-.33,0-.86S11.72,22.58,11.54,22.55Zm-.2-1.18c-.14,0-.56,0-.71,0s-.41,0-.44.32a.77.77,0,0,0,0,.47,2,2,0,0,0,.83.14c.63,0,.54-.45.54-.64A.26.26,0,0,0,11.34,21.37Zm.72,4.9c-.05.52.39.4.74.59s.91.67,1.36.35c.11-.2-.3-.48-.51-.48a.24.24,0,0,1-.23-.16c-.12-.05-.27,0-.34-.09s0-.31-.15-.36S12.08,26,12.06,26.27ZM10.22,21.1c1.28,0,2.56,0,3.92-.09.22,0,.32-.31.32-.46s0-.42,0-.63l.45.34c-.16,0-.15.42-.13.7s-.27.36-.57.36-.26.22-.26.41.07.67,0,.76-.47.14-.47,1.53a13.77,13.77,0,0,0-.12,1.92s0,.18.42.41.67.48.65.82-.47.59-1,.34-.7-.43-.91-.44-.47-.19-.72-.19c-.47,0-1.91,1.3-2.53,1-.44-.22.32-1.23,1.11-1.68.1-.06.1-.21.1-.59V22.9c0-.31,0-.33-.38-.36s-.21-.81-.22-.91,0-.35-.43-.34-.32-.48-.32-.66v-2c0-.13,0-.24-.35-.39a10.33,10.33,0,0,1-.92-.53c-.09-.08-.23-.08-.17-.5,0-.19.22-1.16.46-2.2l.23.18a17.14,17.14,0,0,0-.35,2c0,.29.07.25.2.38a2.4,2.4,0,0,0,.84.34c.29.1.25-.52.25-.62,0-.26-.41-.45-.37-.7a5.28,5.28,0,0,1,.2-.81l.48.37c-.09,1.48-.16,2.87-.16,4.44C9.43,21.23,10,21.09,10.22,21.1Zm2.55,3.58h-.61c-.1,0-.21.27-.21.37v.51c0,.17.31.32.41.32h.35c.09,0,.33-.16.33-.26l0-.66A.28.28,0,0,0,12.77,24.68Zm.56-3.31c-.25,0-.53-.09-.81-.09s-.41.17-.39.37V22c0,.25.24.31.42.33s.41,0,.64,0,.47-.09.46-.3S13.74,21.38,13.33,21.37Zm-.44,1.18a1.67,1.67,0,0,0-.66.06c-.15.09-.19.11-.21.23s0,.76,0,1.06.08.41.18.44a1.89,1.89,0,0,0,.58,0,.37.37,0,0,0,.4-.32,6.63,6.63,0,0,0,.07-.83C13.24,22.69,13.08,22.54,12.89,22.55Z" transform="translate(-0.25 -0.25)" fill="#0a0203"/><path d="M110.17,15a8.06,8.06,0,0,1-1,2.33,7.91,7.91,0,0,1-1.67,1.87,7.65,7.65,0,0,1-2.15,1.25,7.18,7.18,0,0,1-2.55.44A3.49,3.49,0,0,1,100,20a2.76,2.76,0,0,1-.38-2.62,8.25,8.25,0,0,1,1-2.24,7.82,7.82,0,0,1,1.66-1.88A7.67,7.67,0,0,1,104.43,12a7.1,7.1,0,0,1,2.57-.46,3.54,3.54,0,0,1,2.79.93A2.71,2.71,0,0,1,110.17,15Z" transform="translate(-0.25 -0.25)" fill="none" stroke="#19181c" stroke-miterlimit="10" stroke-width="0.28"/><path d="M105.73,17.91a6.47,6.47,0,0,0,.86-1.21,6.78,6.78,0,0,0,.6-1.59,1.73,1.73,0,0,0,0-1.25,1.06,1.06,0,0,0-1-.44,2.35,2.35,0,0,0-1.13.29,4.23,4.23,0,0,0-1,.83,5.61,5.61,0,0,0-.83,1.23,7.71,7.71,0,0,0-.58,1.51,1.53,1.53,0,0,0,.07,1.29,1.16,1.16,0,0,0,1,.4,2.43,2.43,0,0,0,1.06-.28A3.86,3.86,0,0,0,105.73,17.91Z" transform="translate(-0.25 -0.25)" fill="none" stroke="#19181c" stroke-miterlimit="10" stroke-width="0.28"/><path d="M113.5,21.68a2.3,2.3,0,0,0,.52-.26,2.91,2.91,0,0,0,.72-.68,5.07,5.07,0,0,0,.58-1l.08-.16a8.27,8.27,0,0,1-1.39.66,4.27,4.27,0,0,1-1.44.24,2.71,2.71,0,0,1-2.13-.74,2.41,2.41,0,0,1-.25-2.27,8.31,8.31,0,0,1,2.59-4.28,6,6,0,0,1,4-1.68,4.41,4.41,0,0,1,1.33.18,2.27,2.27,0,0,1,.88.46l.3-.39h2.76l-3.82,7.83a9.24,9.24,0,0,1-1.36,2.08l0,0A6.23,6.23,0,0,1,115.22,23a6.47,6.47,0,0,1-1.9.72,9.44,9.44,0,0,1-1.74.2h-.38a13,13,0,0,1-1.81-.12,10.45,10.45,0,0,1-1.4-.26l.87-1.9.13-.28h.35a6.55,6.55,0,0,0,.78.28c.14.05.29.08.44.12a5,5,0,0,0,1.15.15,3.7,3.7,0,0,0,.48,0,4.48,4.48,0,0,0,.86-.11Z" transform="translate(-0.25 -0.25)" fill="none" stroke="#19181c" stroke-miterlimit="10" stroke-width="0.28"/><path d="M118.22,13.82a2.71,2.71,0,0,0-.56-.2,2.51,2.51,0,0,0-.63-.09,3.28,3.28,0,0,0-2.3,1,5,5,0,0,0-1.41,2.45,1.35,1.35,0,0,0,.05,1c.16.26.52.38,1.1.38a2.66,2.66,0,0,0,.89-.16,6.7,6.7,0,0,0,.91-.38Z" transform="translate(-0.25 -0.25)" fill="none" stroke="#19181c" stroke-miterlimit="10" stroke-width="0.28"/><path d="M131.6,15a8.09,8.09,0,0,1-1,2.33,7.83,7.83,0,0,1-3.82,3.12,7.13,7.13,0,0,1-2.54.44,3.52,3.52,0,0,1-2.79-.95,2.76,2.76,0,0,1-.37-2.62,8.14,8.14,0,0,1,1-2.25,8,8,0,0,1,1.66-1.87A7.67,7.67,0,0,1,125.86,12a7.1,7.1,0,0,1,2.57-.46,3.55,3.55,0,0,1,2.79.93A2.71,2.71,0,0,1,131.6,15Z" transform="translate(-0.25 -0.25)" fill="none" stroke="#19181c" stroke-miterlimit="10" stroke-width="0.28"/><path d="M127.15,17.91A6.09,6.09,0,0,0,128,16.7a7.8,7.8,0,0,0,.6-1.59,1.73,1.73,0,0,0,0-1.25,1.06,1.06,0,0,0-1-.44,2.34,2.34,0,0,0-1.12.29,3.88,3.88,0,0,0-1,.83,5.61,5.61,0,0,0-.83,1.23,7.71,7.71,0,0,0-.58,1.51,1.5,1.5,0,0,0,.06,1.29,1.18,1.18,0,0,0,1,.4,2.43,2.43,0,0,0,1.06-.28A3.67,3.67,0,0,0,127.15,17.91Z" transform="translate(-0.25 -0.25)" fill="none" stroke="#19181c" stroke-miterlimit="10" stroke-width="0.28"/><polygon points="143.95 20.37 135.48 20.37 141.25 8.63 144.29 8.63 139.64 18.1 145.08 18.1 143.95 20.37" fill="none" stroke="#ce202f" stroke-miterlimit="10" stroke-width="0.28"/><polygon points="152.37 11.52 148.01 20.37 145.15 20.37 149.52 11.52 152.37 11.52" fill="none" stroke="#19181c" stroke-miterlimit="10" stroke-width="0.28"/><path d="M154.86,21.68a2.8,2.8,0,0,0,.52-.26,3.05,3.05,0,0,0,.71-.68,5.63,5.63,0,0,0,.59-1l.08-.16a8.73,8.73,0,0,1-1.4.66,4.23,4.23,0,0,1-1.44.24,2.71,2.71,0,0,1-2.13-.74,2.44,2.44,0,0,1-.25-2.27,8.31,8.31,0,0,1,2.59-4.28,6,6,0,0,1,4-1.68,4.41,4.41,0,0,1,1.33.18,2.33,2.33,0,0,1,.88.46l.3-.39h2.77L159.6,19.6a9.58,9.58,0,0,1-1.35,2.08l0,0A6.57,6.57,0,0,1,156.58,23a6.4,6.4,0,0,1-1.9.72,9.83,9.83,0,0,1-2.1.21h0a12.74,12.74,0,0,1-1.8-.12,10.63,10.63,0,0,1-1.41-.26l.87-1.9.13-.28h.35a6.55,6.55,0,0,0,.78.28c.14.05.29.08.44.12a5.06,5.06,0,0,0,1.16.15h.13a6,6,0,0,0,1.2-.13A4.21,4.21,0,0,0,154.86,21.68Z" transform="translate(-0.25 -0.25)" fill="none" stroke="#19181c" stroke-miterlimit="10" stroke-width="0.28"/><path d="M159.57,13.82a2.59,2.59,0,0,0-.55-.2,2.65,2.65,0,0,0-.64-.09,3.29,3.29,0,0,0-2.3,1,5,5,0,0,0-1.41,2.45,1.33,1.33,0,0,0,.06,1.06c.15.25.52.37,1.09.37a2.66,2.66,0,0,0,.89-.16,6.7,6.7,0,0,0,.91-.38Z" transform="translate(-0.25 -0.25)" fill="none" stroke="#19181c" stroke-miterlimit="10" stroke-width="0.28"/><path d="M168,12.74a16.88,16.88,0,0,1,1.83-.9,4.6,4.6,0,0,1,1.68-.32,2.14,2.14,0,0,1,1.71.59,1.73,1.73,0,0,1,.22,1.66,3.84,3.84,0,0,1-.16.49,5.18,5.18,0,0,1-.26.6l-2.83,5.76h-2.87l2.16-4.39c.16-.34.29-.62.39-.85a3.51,3.51,0,0,0,.23-.63A.81.81,0,0,0,170,14a1.22,1.22,0,0,0-.89-.23,2.81,2.81,0,0,0-.82.15,7.67,7.67,0,0,0-1.1.43l-3.09,6.28h-2.85l6-12.27h2.85Z" transform="translate(-0.25 -0.25)" fill="none" stroke="#19181c" stroke-miterlimit="10" stroke-width="0.28"/><path d="M175.67,20.79a2.93,2.93,0,0,1-2-.48,1.39,1.39,0,0,1-.26-1.44,4,4,0,0,1,.17-.49l.25-.55,2.06-4.2h-1.17l.92-1.86h1.17l1.24-2.54h2.85l-1.24,2.54h2.66l-.9,1.82,0,0h-2.66l-1.57,3.2-.33.66a4.06,4.06,0,0,0-.22.58c-.08.31,0,.53.09.65a1.17,1.17,0,0,0,.77.19,3.31,3.31,0,0,0,.6-.08,3.87,3.87,0,0,0,.62-.19H179l-.94,1.9c-.34.08-.7.14-1.06.19A12.16,12.16,0,0,1,175.67,20.79Z" transform="translate(-0.25 -0.25)" fill="none" stroke="#19181c" stroke-miterlimit="10" stroke-width="0.28"/><path d="M184.13,20.86a4.35,4.35,0,0,1-3.23-1,2.73,2.73,0,0,1-.51-2.77,7.63,7.63,0,0,1,1-2.22,9.68,9.68,0,0,1,.74-.95,8.74,8.74,0,0,1,.89-.82,7.16,7.16,0,0,1,2.12-1.18,7.26,7.26,0,0,1,2.5-.43,3.88,3.88,0,0,1,2.78.8,2.34,2.34,0,0,1,.39,2.37,6.33,6.33,0,0,1-.38,1.05,9.06,9.06,0,0,1-.55,1h-6.59a.44.44,0,0,0,0,.1.46.46,0,0,0,0,.09,1.42,1.42,0,0,0,.27,1.44,2.57,2.57,0,0,0,1.85.52,5.42,5.42,0,0,0,1.85-.32,10.92,10.92,0,0,0,1.64-.7h.31L188,20.13a10.71,10.71,0,0,1-1.89.55A10.86,10.86,0,0,1,184.13,20.86Z" transform="translate(-0.25 -0.25)" fill="none" stroke="#19181c" stroke-miterlimit="10" stroke-width="0.28"/><path d="M187.82,15.06a1.72,1.72,0,0,0,.1-.26,1.83,1.83,0,0,0,.08-.25,1,1,0,0,0-.14-1,1.3,1.3,0,0,0-1-.34,2.86,2.86,0,0,0-1.6.48A4.41,4.41,0,0,0,184,15.06Z" transform="translate(-0.25 -0.25)" fill="none" stroke="#19181c" stroke-miterlimit="10" stroke-width="0.28"/><path d="M198.92,14.47h-.25a2.37,2.37,0,0,0-.51-.09,5.17,5.17,0,0,0-.68,0,6.71,6.71,0,0,0-1.1.09,7.68,7.68,0,0,0-1.14.26l-2.92,5.93h-2.86l4.36-8.85h2.86l-.64,1.3a13.27,13.27,0,0,1,1.85-1,4.63,4.63,0,0,1,1.71-.37h.33a2.5,2.5,0,0,1,.32,0Z" transform="translate(-0.25 -0.25)" fill="none" stroke="#19181c" stroke-miterlimit="10" stroke-width="0.28"/></svg>